<?xml version="1.0" encoding="UTF-8"?>
<svg id="Camada_1" data-name="Camada 1" xmlns="http://www.w3.org/2000/svg" viewBox="0 0 692.19 300">
  <defs>
    <style>
      .cls-1 {
        fill: #9cb7c8;
      }

      .cls-2 {
        fill: #fef7e7;
      }
    </style>
  </defs>
  <g>
    <path class="cls-2" d="M165.95,52.38v3.05c26.11,0,49.75,10.58,66.86,27.69l2.16-2.16c-17.66-17.66-42.06-28.58-69.01-28.58Z"/>
    <path class="cls-2" d="M165.95,66.11c-23.17,0-44.14,9.39-59.32,24.58l4.31,4.31c14.08-14.08,33.52-22.79,55-22.79s40.92,8.7,54.99,22.78l4.31-4.31c-15.18-15.18-36.15-24.56-59.31-24.56Z"/>
    <path class="cls-2" d="M165.95,81.36c-18.95,0-36.11,7.68-48.53,20.1-12.41,12.42-20.1,29.57-20.1,48.51h9.15c0-16.42,6.67-31.28,17.42-42.04,10.77-10.77,25.64-17.42,42.06-17.42s31.29,6.65,42.05,17.41l6.47-6.47c-12.42-12.42-29.58-20.09-48.52-20.09Z"/>
    <path class="cls-2" d="M191.83,175.89c-6.63,6.62-15.78,10.72-25.88,10.72s-19.27-4.1-25.9-10.73c-6.62-6.63-10.71-15.77-10.71-25.87s4.1-19.26,10.72-25.88c6.63-6.63,15.78-10.73,25.89-10.73s19.25,4.09,25.88,10.71l10.78-10.78c-9.38-9.38-22.34-15.18-36.66-15.18s-27.29,5.81-36.67,15.19c-9.38,9.38-15.19,22.35-15.19,36.67s5.8,27.27,15.18,36.66c9.38,9.39,22.35,15.2,36.68,15.2s27.28-5.81,36.67-15.19l-10.78-10.78Z"/>
    <path class="cls-2" d="M166.03,113.39h-.17s.06,0,.09,0,.06,0,.09,0Z"/>
    <circle class="cls-1" cx="165.95" cy="53.91" r="1.53"/>
    <circle class="cls-2" cx="165.95" cy="246.09" r="1.53"/>
    <circle class="cls-2" cx="233.89" cy="217.95" r="1.53"/>
    <circle class="cls-2" cx="226.91" cy="224.28" r="1.53"/>
    <circle class="cls-2" cx="219.33" cy="229.9" r="1.53"/>
    <circle class="cls-2" cx="211.24" cy="234.75" r="1.53"/>
    <circle class="cls-2" cx="202.72" cy="238.78" r="1.53"/>
    <circle class="cls-2" cx="193.84" cy="241.96" r="1.53"/>
    <circle class="cls-2" cx="184.69" cy="244.25" r="1.53"/>
    <circle class="cls-2" cx="175.37" cy="245.63" r="1.53"/>
    <circle class="cls-2" cx="166.03" cy="230.84" r="3.05"/>
    <circle class="cls-2" cx="223.18" cy="207.13" r="3.05"/>
    <circle class="cls-2" cx="210.93" cy="217.19" r="3.05"/>
    <circle class="cls-2" cx="196.96" cy="224.67" r="3.05"/>
    <circle class="cls-2" cx="181.8" cy="229.28" r="3.05"/>
    <circle class="cls-2" cx="166.03" cy="214.06" r="4.58"/>
    <circle class="cls-2" cx="211.32" cy="195.27" r="4.58"/>
    <circle class="cls-2" cx="190.54" cy="209.17" r="4.58"/>
    <path class="cls-2" d="M165.86,186.6h.17s-.06,0-.09,0-.06,0-.09,0Z"/>
    <circle class="cls-2" cx="156.53" cy="245.62" r="1.53"/>
    <circle class="cls-2" cx="147.2" cy="244.24" r="1.53"/>
    <circle class="cls-2" cx="138.05" cy="241.95" r="1.53"/>
    <circle class="cls-2" cx="129.17" cy="238.77" r="1.53"/>
    <circle class="cls-2" cx="120.65" cy="234.74" r="1.53"/>
    <circle class="cls-2" cx="112.56" cy="229.89" r="1.53"/>
    <circle class="cls-2" cx="104.98" cy="224.27" r="1.53"/>
    <circle class="cls-2" cx="98" cy="217.94" r="1.53"/>
    <circle class="cls-2" cx="91.66" cy="210.95" r="1.53"/>
    <circle class="cls-2" cx="86.05" cy="203.38" r="1.53"/>
    <circle class="cls-2" cx="81.2" cy="195.29" r="1.53"/>
    <circle class="cls-2" cx="77.17" cy="186.77" r="1.53"/>
    <circle class="cls-2" cx="73.99" cy="177.89" r="1.53"/>
    <circle class="cls-2" cx="71.7" cy="168.74" r="1.53"/>
    <circle class="cls-2" cx="70.31" cy="159.41" r="1.53"/>
    <circle class="cls-2" cx="69.85" cy="149.99" r="1.53"/>
    <circle class="cls-2" cx="70.31" cy="140.57" r="1.53"/>
    <circle class="cls-2" cx="71.7" cy="131.25" r="1.53"/>
    <circle class="cls-2" cx="73.99" cy="122.1" r="1.53"/>
    <circle class="cls-2" cx="77.17" cy="113.22" r="1.53"/>
    <circle class="cls-2" cx="81.2" cy="104.69" r="1.53"/>
    <circle class="cls-2" cx="86.05" cy="96.61" r="1.53"/>
    <circle class="cls-2" cx="91.66" cy="89.03" r="1.53"/>
    <circle class="cls-2" cx="98" cy="82.04" r="1.53"/>
    <circle class="cls-2" cx="104.98" cy="75.71" r="1.53"/>
    <circle class="cls-2" cx="112.56" cy="70.09" r="1.53"/>
    <circle class="cls-2" cx="120.65" cy="65.25" r="1.53"/>
    <circle class="cls-2" cx="129.17" cy="61.21" r="1.53"/>
    <circle class="cls-2" cx="138.05" cy="58.04" r="1.53"/>
    <circle class="cls-2" cx="147.2" cy="55.75" r="1.53"/>
    <circle class="cls-2" cx="156.53" cy="54.36" r="1.53"/>
    <circle class="cls-2" cx="150.17" cy="229.29" r="3.05"/>
    <circle class="cls-2" cx="135.01" cy="224.69" r="3.05"/>
    <circle class="cls-2" cx="121.03" cy="217.23" r="3.05"/>
    <circle class="cls-2" cx="108.77" cy="207.18" r="3.05"/>
    <circle class="cls-2" cx="98.71" cy="194.94" r="3.05"/>
    <circle class="cls-2" cx="91.23" cy="180.97" r="3.05"/>
    <circle class="cls-2" cx="86.63" cy="165.8" r="3.05"/>
    <circle class="cls-2" cx="85.06" cy="150.03" r="3.05"/>
    <circle class="cls-2" cx="86.61" cy="134.26" r="3.05"/>
    <circle class="cls-2" cx="91.2" cy="119.1" r="3.05"/>
    <circle class="cls-2" cx="98.67" cy="105.12" r="3.05"/>
    <circle class="cls-2" cx="141.43" cy="209.19" r="4.58"/>
    <circle class="cls-2" cx="120.64" cy="195.32" r="4.58"/>
    <circle class="cls-2" cx="106.74" cy="174.55" r="4.58"/>
    <circle class="cls-1" cx="101.88" cy="149.98" r="4.58"/>
    <circle class="cls-1" cx="197.22" cy="181.28" r="7.63"/>
    <circle class="cls-1" cx="108.78" cy="92.84" r="3.05"/>
  </g>
  <g>
    <g>
      <path class="cls-2" d="M458.68,157.45h21.7c4.02-.2,7.21-3.53,7.21-7.6s-3.4-7.61-7.61-7.61h-21.3v-28.92h36.52c4.2,0,7.61-3.4,7.61-7.61s-3.19-7.39-7.21-7.6h-44.91c-4.02.2-7.21,3.53-7.21,7.6v95.86h59.34v-15.21h-44.12v-28.92Z"/>
      <circle class="cls-1" cx="495.19" cy="105.7" r="7.61"/>
    </g>
    <g>
      <path class="cls-2" d="M581.94,126.87v1.84c-.15,4.91-1.49,9.51-3.74,13.54-4.96,8.87-14.33,14.93-25.15,15.21h-15.23v44.13h-15.21v-51.99c0-4.06,3.29-7.35,7.35-7.35h21.82c7.7,0,14.43-5.81,14.92-13.5.55-8.42-6.12-15.42-14.43-15.42h-22.06c-1.22,0-2.37-.29-3.39-.8-2.5-1.24-4.22-3.82-4.22-6.81,0-4.07,3.2-7.39,7.21-7.6h23.23c10.81.27,20.19,6.34,25.15,15.21,2.25,4.03,3.59,8.64,3.74,13.54Z"/>
      <circle class="cls-1" cx="530.21" cy="105.7" r="7.61"/>
    </g>
    <g>
      <path class="cls-2" d="M616.65,98.12h-.79c-4.02.2-7.21,3.53-7.21,7.6v95.86h15.21v-95.86c0-4.07-3.19-7.39-7.21-7.6Z"/>
      <circle class="cls-1" cx="616.26" cy="105.7" r="7.61"/>
    </g>
    <g>
      <path class="cls-2" d="M333.27,105.58v95.98s15.21,0,15.21,0v-77.47s27.26,27.26,27.26,27.26l27.27-27.27v69.88c0,4.2,3.4,7.61,7.61,7.61,4.16,0,7.54-3.34,7.6-7.48v-88.5c-.07-4.14-3.44-7.48-7.6-7.48-2.1,0-4,.85-5.38,2.23l-29.5,29.5-16.52-16.52-13.23-13.23c-1.35-1.23-3.14-1.97-5.12-1.97-4.16,0-7.54,3.33-7.6,7.48Z"/>
      <circle class="cls-1" cx="410.62" cy="193.96" r="7.61"/>
    </g>
    <g>
      <path class="cls-2" d="M303.04,149.83h0c0,2.53-2.04,4.57-4.56,4.57h-45.65c-2.52,0-4.56-2.04-4.56-4.56s1.92-4.44,4.33-4.56h40.93c-.17-1.04-.4-2.05-.69-3.05-3.3-11.43-13.83-19.78-26.31-19.78s-23.02,8.35-26.31,19.78c-.29,1-.52,2.01-.69,3.05-.25,1.48-.38,3-.38,4.56s.13,3.08.38,4.56c.17,1.03.4,2.04.68,3.03,3.29,11.43,13.83,19.79,26.32,19.79,2.52,0,4.56,2.04,4.56,4.56s-2.04,4.56-4.56,4.56h-.23c-17.46-.11-32.01-12.47-35.49-28.92-.21-1-.38-2.01-.51-3.03-.19-1.49-.28-3.02-.28-4.56s.09-3.06.28-4.56c.13-1.03.3-2.05.51-3.05,3.5-16.52,18.16-28.91,35.72-28.91s32.22,12.39,35.72,28.91c.22,1,.39,2.02.51,3.05.19,1.49.28,3.01.28,4.55Z"/>
      <circle class="cls-1" cx="252.83" cy="149.84" r="4.56"/>
    </g>
  </g>
</svg>