<?xml version="1.0" encoding="UTF-8"?>
<svg id="Camada_1" data-name="Camada 1" xmlns="http://www.w3.org/2000/svg" viewBox="0 0 286.09 300">
  <defs>
    <style>
      .cls-1 {
        fill: #fef7e7;
      }
    </style>
  </defs>
  <path class="cls-1" d="M157.2,113.39s-.06,0-.09,0-.06,0-.09,0h.17ZM155.59,53.91c0-.85.68-1.53,1.53-1.53,26.95,0,51.35,10.92,69.01,28.58l-2.16,2.16c-17.11-17.11-40.74-27.69-66.85-27.69-.85,0-1.53-.68-1.53-1.52ZM156.34,53.91c0,.42.35.77.78.77s.77-.35.77-.77-.35-.78-.77-.78-.78.35-.78.78ZM157.42,244.6c-.83-.16-1.63.37-1.79,1.2-.16.83.37,1.63,1.2,1.79.83.16,1.63-.37,1.79-1.2.16-.83-.37-1.63-1.2-1.79ZM223.99,216.87c-.6.6-.6,1.56,0,2.16s1.56.6,2.16,0c.6-.6.6-1.56,0-2.16-.6-.6-1.56-.6-2.16,0ZM217.11,223.1c-.65.53-.75,1.5-.21,2.15.53.65,1.5.75,2.15.21s.75-1.5.21-2.15-1.5-.75-2.15-.21ZM209.66,228.63c-.7.47-.89,1.42-.42,2.12.47.7,1.42.89,2.12.42s.89-1.42.42-2.12c-.47-.7-1.42-.89-2.12-.42ZM201.7,233.4c-.74.4-1.02,1.32-.63,2.06.4.74,1.32,1.02,2.06.63.74-.4,1.02-1.32.63-2.06-.4-.74-1.32-1.02-2.06-.63ZM193.31,237.37c-.78.32-1.15,1.21-.83,1.99.32.78,1.21,1.15,1.99.83s1.15-1.21.83-1.99c-.32-.78-1.21-1.15-1.99-.83ZM184.57,240.5c-.81.24-1.26,1.1-1.02,1.9.24.81,1.1,1.26,1.9,1.02.81-.24,1.26-1.1,1.02-1.9-.24-.81-1.1-1.26-1.9-1.02ZM175.57,242.75c-.83.16-1.36.97-1.2,1.79.16.83.97,1.36,1.79,1.2.83-.16,1.36-.97,1.2-1.79-.16-.83-.97-1.36-1.79-1.2ZM166.39,244.11c-.84.08-1.45.83-1.37,1.67.08.84.83,1.45,1.67,1.37.84-.08,1.45-.83,1.37-1.67-.08-.84-.83-1.45-1.67-1.37ZM158.76,228.22c-1.45-.86-3.32-.38-4.18,1.07-.86,1.45-.38,3.32,1.07,4.18,1.45.86,3.32.38,4.18-1.07.86-1.45.38-3.32-1.07-4.18ZM216.98,208.69c.86-1.45.38-3.32-1.07-4.18-1.45-.86-3.32-.38-4.18,1.07-.86,1.45-.38,3.32,1.07,4.18,1.45.86,3.32.38,4.18-1.07ZM199.84,215.15c-1.13,1.25-1.02,3.18.23,4.31,1.25,1.13,3.18,1.02,4.31-.23,1.13-1.25,1.02-3.18-.23-4.31s-3.18-1.02-4.31.23ZM186.31,222.23c-1.35,1.01-1.62,2.92-.61,4.27,1.01,1.35,2.92,1.62,4.27.61,1.35-1.01,1.62-2.92.61-4.27-1.01-1.35-2.92-1.62-4.27-.61ZM175.73,227.96c-.73-1.52-2.55-2.16-4.07-1.44-1.52.73-2.16,2.55-1.44,4.07.73,1.52,2.55,2.16,4.07,1.44,1.52-.73,2.16-2.55,1.44-4.07ZM153.97,210.83c-1.79,1.79-1.79,4.68,0,6.47,1.79,1.79,4.68,1.79,6.47,0,1.79-1.79,1.79-4.68,0-6.47-1.79-1.79-4.68-1.79-6.47,0ZM199.25,192.03c-1.79,1.79-1.79,4.68,0,6.47s4.68,1.79,6.47,0,1.79-4.68,0-6.47c-1.79-1.79-4.68-1.79-6.47,0ZM185.94,207.42c-.97-2.33-3.64-3.44-5.98-2.48-2.33.97-3.44,3.64-2.48,5.98.97,2.33,3.64,3.44,5.98,2.48,2.33-.97,3.44-3.64,2.48-5.98ZM157.12,186.6s-.06,0-.09,0h.17s-.06,0-.09,0ZM147.85,244.11c-.84-.08-1.58.53-1.67,1.37-.08.84.53,1.58,1.37,1.67s1.58-.53,1.67-1.37c.08-.84-.53-1.58-1.37-1.67ZM138.67,242.74c-.83-.16-1.63.37-1.79,1.2-.16.83.37,1.63,1.2,1.79.83.16,1.63-.37,1.79-1.2.16-.83-.37-1.63-1.2-1.79ZM129.67,240.49c-.81-.24-1.66.21-1.9,1.02-.24.81.21,1.66,1.02,1.9.81.24,1.66-.21,1.9-1.02.24-.81-.21-1.66-1.02-1.9ZM120.93,237.36c-.78-.32-1.67.05-1.99.83-.32.78.05,1.67.83,1.99s1.67-.05,1.99-.83c.32-.78-.05-1.67-.83-1.99ZM112.54,233.39c-.74-.4-1.67-.12-2.06.63-.4.74-.12,1.67.63,2.06s1.67.12,2.06-.63c.4-.74.12-1.67-.63-2.06ZM104.58,228.62c-.7-.47-1.65-.28-2.12.42-.47.7-.28,1.65.42,2.12.7.47,1.65.28,2.12-.42.47-.7.28-1.65-.42-2.12ZM94.98,223.31c-.53.65-.44,1.61.21,2.15s1.61.44,2.15-.21.44-1.61-.21-2.15c-.65-.53-1.61-.44-2.15.21ZM88.09,216.86c-.6.6-.6,1.56,0,2.16s1.56.6,2.16,0c.6-.6.6-1.56,0-2.16-.6-.6-1.56-.6-2.16,0ZM81.87,209.77c-.65.53-.75,1.5-.21,2.15s1.5.75,2.15.21.75-1.5.21-2.15-1.5-.75-2.15-.21ZM76.37,202.11c-.7.47-.89,1.42-.42,2.12s1.42.89,2.12.42.89-1.42.42-2.12c-.47-.7-1.42-.89-2.12-.42ZM71.65,193.95c-.74.4-1.02,1.32-.63,2.06.4.74,1.32,1.02,2.06.63s1.02-1.32.63-2.06-1.32-1.02-2.06-.63ZM67.76,185.36c-.78.32-1.15,1.21-.83,1.99.32.78,1.21,1.15,1.99.83.78-.32,1.15-1.21.83-1.99-.32-.78-1.21-1.15-1.99-.83ZM64.72,176.43c-.81.24-1.26,1.1-1.02,1.9.24.81,1.1,1.26,1.9,1.02.81-.24,1.26-1.1,1.02-1.9-.24-.81-1.1-1.26-1.9-1.02ZM64.37,168.44c-.16-.83-.97-1.36-1.79-1.2-.83.16-1.36.97-1.2,1.79.16.83.97,1.36,1.79,1.2.83-.16,1.36-.97,1.2-1.79ZM63.01,159.26c-.08-.84-.83-1.45-1.67-1.37s-1.45.83-1.37,1.67c.08.84.83,1.45,1.67,1.37.84-.08,1.45-.83,1.37-1.67ZM62.55,149.99c0-.84-.68-1.53-1.53-1.53-.84,0-1.53.68-1.53,1.53s.68,1.53,1.53,1.53,1.53-.68,1.53-1.53ZM61.34,142.09c.84.08,1.58-.53,1.67-1.37.08-.84-.53-1.58-1.37-1.67-.84-.08-1.58.53-1.67,1.37-.08.84.53,1.58,1.37,1.67ZM62.58,132.74c.83.16,1.63-.37,1.79-1.2.16-.83-.37-1.63-1.2-1.79-.83-.16-1.63.37-1.79,1.2-.16.83.37,1.63,1.2,1.79ZM65.61,120.64c-.81-.24-1.66.21-1.9,1.02-.24.81.21,1.66,1.02,1.9.81.24,1.66-.21,1.9-1.02.24-.81-.21-1.66-1.02-1.9ZM68.92,111.81c-.78-.32-1.67.05-1.99.83-.32.78.05,1.67.83,1.99.78.32,1.67-.05,1.99-.83s-.05-1.67-.83-1.99ZM71.65,106.04c.74.4,1.67.12,2.06-.63s.12-1.67-.63-2.06-1.67-.12-2.06.63c-.4.74-.12,1.67.63,2.06ZM76.37,97.87c.7.47,1.65.28,2.12-.42.47-.7.28-1.65-.42-2.12-.7-.47-1.65-.28-2.12.42-.47.7-.28,1.65.42,2.12ZM84.02,90c.53-.65.44-1.61-.21-2.15-.65-.53-1.61-.44-2.15.21-.53.65-.44,1.61.21,2.15.65.53,1.61.44,2.15-.21ZM90.25,83.12c.6-.6.6-1.56,0-2.16-.6-.6-1.56-.6-2.16,0s-.6,1.56,0,2.16c.6.6,1.56.6,2.16,0ZM97.13,76.89c.65-.53.75-1.5.21-2.15s-1.5-.75-2.15-.21-.75,1.5-.21,2.15,1.5.75,2.15.21ZM104.58,71.36c.7-.47.89-1.42.42-2.12s-1.42-.89-2.12-.42c-.7.47-.89,1.42-.42,2.12.47.7,1.42.89,2.12.42ZM112.54,66.59c.74-.4,1.02-1.32.63-2.06s-1.32-1.02-2.06-.63-1.02,1.32-.63,2.06c.4.74,1.32,1.02,2.06.63ZM120.93,62.62c.78-.32,1.15-1.21.83-1.99-.32-.78-1.21-1.15-1.99-.83s-1.15,1.21-.83,1.99c.32.78,1.21,1.15,1.99.83ZM129.67,59.5c.81-.24,1.26-1.1,1.02-1.9-.24-.81-1.1-1.26-1.9-1.02-.81.24-1.26,1.1-1.02,1.9.24.81,1.1,1.26,1.9,1.02ZM138.67,57.24c.83-.16,1.36-.97,1.2-1.79-.16-.83-.97-1.36-1.79-1.2-.83.16-1.36.97-1.2,1.79.16.83.97,1.36,1.79,1.2ZM147.85,55.88c.84-.08,1.45-.83,1.37-1.67-.08-.84-.83-1.45-1.67-1.37-.84.08-1.45.83-1.37,1.67.08.84.83,1.45,1.67,1.37ZM141.19,226.24c-1.68.09-2.97,1.53-2.88,3.21.09,1.68,1.53,2.97,3.21,2.88,1.68-.09,2.97-1.53,2.88-3.21-.09-1.68-1.53-2.97-3.21-2.88ZM129.2,225.13c.24-1.67-.92-3.21-2.59-3.45-1.67-.24-3.21.92-3.45,2.59-.24,1.67.92,3.21,2.58,3.45,1.67.24,3.21-.92,3.45-2.59ZM113.22,214.36c-1.59-.56-3.33.27-3.89,1.86-.56,1.59.27,3.33,1.86,3.89,1.59.56,3.33-.27,3.89-1.86.56-1.59-.27-3.33-1.86-3.89ZM101.5,204.56c-1.45-.86-3.32-.38-4.18,1.07-.86,1.45-.38,3.32,1.07,4.18,1.45.86,3.32.38,4.18-1.07.86-1.45.38-3.32-1.07-4.18ZM87.62,192.9c-1.13,1.25-1.02,3.18.23,4.31,1.25,1.13,3.18,1.02,4.31-.23,1.13-1.25,1.02-3.18-.23-4.31-1.25-1.13-3.18-1.02-4.31.23ZM80.58,178.53c-1.35,1.01-1.62,2.92-.61,4.27,1.01,1.35,2.92,1.62,4.27.61s1.62-2.92.61-4.27c-1.01-1.35-2.92-1.62-4.27-.61ZM80.55,164.49c-.73-1.52-2.55-2.16-4.07-1.44-1.52.73-2.16,2.55-1.44,4.07.73,1.52,2.55,2.16,4.07,1.44,1.52-.73,2.16-2.55,1.44-4.07ZM76.99,152.99c1.63-.42,2.62-2.08,2.2-3.71-.42-1.63-2.08-2.62-3.71-2.2-1.63.42-2.62,2.08-2.2,3.71.42,1.63,2.08,2.62,3.71,2.2ZM77.95,137.31c1.68-.09,2.97-1.53,2.88-3.21s-1.53-2.97-3.21-2.88c-1.68.09-2.97,1.53-2.88,3.21s1.53,2.97,3.21,2.88ZM81.94,122.12c1.67.24,3.21-.92,3.45-2.59.24-1.67-.92-3.21-2.59-3.45-1.67-.24-3.21.92-3.45,2.59-.24,1.67.92,3.21,2.58,3.45ZM88.82,107.99c1.59.56,3.33-.27,3.89-1.86.56-1.59-.27-3.33-1.86-3.89-1.59-.56-3.33.27-3.89,1.86-.56,1.59.27,3.33,1.86,3.89ZM134.35,204.97c-2.33-.97-5.01.14-5.98,2.48-.97,2.33.14,5.01,2.48,5.98,2.33.97,5.01-.14,5.98-2.48.97-2.33-.14-5.01-2.48-5.98ZM108.57,192.09c-1.79,1.79-1.79,4.68,0,6.47,1.79,1.79,4.68,1.79,6.47,0s1.79-4.68,0-6.47-4.68-1.79-6.47,0ZM99.66,178.78c2.33-.97,3.44-3.64,2.48-5.98-.97-2.33-3.64-3.44-5.98-2.48-2.33.97-3.44,3.64-2.48,5.98.97,2.33,3.64,3.44,5.98,2.48ZM96.29,153.21c-.83.83-1.98,1.34-3.24,1.34-2.52,0-4.57-2.04-4.57-4.57,0-18.95,7.69-36.1,20.1-48.51,12.42-12.43,29.58-20.11,48.54-20.11s36.1,7.68,48.52,20.09l-6.47,6.47c-10.77-10.76-25.63-17.41-42.05-17.41s-31.3,6.66-42.07,17.43c-10.76,10.75-17.41,25.62-17.42,42.04,0,1.27-.51,2.41-1.34,3.23ZM96.88,149.98c0-2.11-1.72-3.83-3.83-3.83s-3.82,1.72-3.82,3.83,1.71,3.82,3.82,3.82,3.83-1.71,3.83-3.82ZM193.78,175.89c2.98,2.97,2.98,7.8,0,10.78-9.38,9.38-22.35,15.19-36.67,15.19s-27.29-5.81-36.68-15.2c-9.38-9.39-15.18-22.35-15.18-36.66s5.81-27.29,15.19-36.67c9.39-9.39,22.35-15.19,36.67-15.19s27.28,5.8,36.66,15.18l-10.78,10.78c-6.61-6.6-15.72-10.69-25.79-10.71h-.17c-10.08.02-19.2,4.12-25.81,10.72-6.62,6.63-10.72,15.78-10.72,25.89s4.1,19.25,10.72,25.87c6.62,6.63,15.78,10.74,25.89,10.74s19.26-4.1,25.89-10.72c1.49-1.49,3.44-2.24,5.39-2.24s3.9.75,5.39,2.24ZM193.25,176.42c-1.3-1.3-3.02-2.02-4.86-2.02s-3.56.72-4.86,2.02c-2.68,2.68-2.68,7.04,0,9.72,1.3,1.3,3.02,2.01,4.86,2.01s3.56-.71,4.86-2.01c2.68-2.68,2.68-7.04,0-9.72ZM97.8,90.68c15.17-15.18,36.15-24.57,59.32-24.57s44.12,9.38,59.3,24.56l-4.31,4.31c-14.08-14.07-33.52-22.77-54.99-22.77s-40.93,8.71-55.01,22.78c-.6.6-1.38.9-2.16.9s-1.56-.3-2.15-.9c-1.2-1.19-1.2-3.12,0-4.31ZM98.33,94.46c.43.44,1.01.68,1.62.68s1.2-.24,1.63-.68c.9-.89.9-2.35,0-3.25-.43-.43-1.01-.67-1.63-.67s-1.19.24-1.62.67c-.9.9-.9,2.36,0,3.25Z"/>
</svg>