<?xml version="1.0" encoding="UTF-8"?>
<svg id="Camada_1" data-name="Camada 1" xmlns="http://www.w3.org/2000/svg" viewBox="0 0 1220.67 300">
  <defs>
    <style>
      .cls-1 {
        fill: #9cb7c8;
      }

      .cls-2 {
        fill: #fef7e7;
      }
    </style>
  </defs>
  <g>
    <g>
      <path class="cls-2" d="M177.96,52.38v3.05c26.11,0,49.75,10.58,66.86,27.69l2.16-2.16c-17.66-17.66-42.06-28.58-69.01-28.58Z"/>
      <path class="cls-2" d="M177.96,66.11c-23.17,0-44.14,9.39-59.32,24.58l4.31,4.31c14.08-14.08,33.52-22.79,55-22.79s40.92,8.7,54.99,22.78l4.31-4.31c-15.18-15.18-36.15-24.56-59.31-24.56Z"/>
      <path class="cls-2" d="M177.96,81.36c-18.95,0-36.11,7.68-48.53,20.1-12.41,12.42-20.1,29.57-20.1,48.51h9.15c0-16.42,6.67-31.28,17.42-42.04,10.77-10.77,25.64-17.42,42.06-17.42s31.29,6.65,42.05,17.41l6.47-6.47c-12.42-12.42-29.58-20.09-48.52-20.09Z"/>
      <path class="cls-2" d="M203.84,175.89c-6.63,6.62-15.78,10.72-25.88,10.72s-19.27-4.1-25.9-10.73c-6.62-6.63-10.71-15.77-10.71-25.87s4.1-19.26,10.72-25.88c6.63-6.63,15.78-10.73,25.89-10.73s19.25,4.09,25.88,10.71l10.78-10.78c-9.38-9.38-22.34-15.18-36.66-15.18s-27.29,5.81-36.67,15.19c-9.38,9.38-15.19,22.35-15.19,36.67s5.8,27.27,15.18,36.66c9.38,9.39,22.35,15.2,36.68,15.2s27.28-5.81,36.67-15.19l-10.78-10.78Z"/>
      <path class="cls-2" d="M178.04,113.39h-.17s.06,0,.09,0,.06,0,.09,0Z"/>
      <circle class="cls-1" cx="177.96" cy="53.91" r="1.53"/>
      <circle class="cls-2" cx="177.96" cy="246.09" r="1.53"/>
      <circle class="cls-2" cx="245.91" cy="217.95" r="1.53"/>
      <circle class="cls-2" cx="238.92" cy="224.28" r="1.53"/>
      <circle class="cls-2" cx="231.35" cy="229.9" r="1.53"/>
      <circle class="cls-2" cx="223.26" cy="234.75" r="1.53"/>
      <circle class="cls-2" cx="214.73" cy="238.78" r="1.53"/>
      <circle class="cls-2" cx="205.85" cy="241.96" r="1.53"/>
      <circle class="cls-2" cx="196.71" cy="244.25" r="1.53"/>
      <circle class="cls-2" cx="187.38" cy="245.63" r="1.53"/>
      <circle class="cls-2" cx="178.04" cy="230.84" r="3.05"/>
      <circle class="cls-2" cx="235.19" cy="207.13" r="3.05"/>
      <circle class="cls-2" cx="222.95" cy="217.19" r="3.05"/>
      <circle class="cls-2" cx="208.97" cy="224.67" r="3.05"/>
      <circle class="cls-2" cx="193.81" cy="229.28" r="3.05"/>
      <circle class="cls-2" cx="178.04" cy="214.06" r="4.58"/>
      <circle class="cls-2" cx="223.33" cy="195.27" r="4.58"/>
      <circle class="cls-2" cx="202.55" cy="209.17" r="4.58"/>
      <path class="cls-2" d="M177.87,186.6h.17s-.06,0-.09,0-.06,0-.09,0Z"/>
      <circle class="cls-2" cx="168.54" cy="245.62" r="1.53"/>
      <circle class="cls-2" cx="159.21" cy="244.24" r="1.53"/>
      <circle class="cls-2" cx="150.06" cy="241.95" r="1.53"/>
      <circle class="cls-2" cx="141.18" cy="238.77" r="1.53"/>
      <circle class="cls-2" cx="132.66" cy="234.74" r="1.53"/>
      <circle class="cls-2" cx="124.57" cy="229.89" r="1.53"/>
      <circle class="cls-2" cx="117" cy="224.27" r="1.53"/>
      <circle class="cls-2" cx="110.01" cy="217.94" r="1.53"/>
      <circle class="cls-2" cx="103.68" cy="210.95" r="1.53"/>
      <circle class="cls-2" cx="98.06" cy="203.38" r="1.53"/>
      <circle class="cls-2" cx="93.21" cy="195.29" r="1.53"/>
      <circle class="cls-2" cx="89.18" cy="186.77" r="1.53"/>
      <circle class="cls-2" cx="86" cy="177.89" r="1.53"/>
      <circle class="cls-2" cx="83.71" cy="168.74" r="1.53"/>
      <circle class="cls-2" cx="82.33" cy="159.41" r="1.53"/>
      <circle class="cls-2" cx="81.86" cy="149.99" r="1.53"/>
      <circle class="cls-2" cx="82.33" cy="140.57" r="1.53"/>
      <circle class="cls-2" cx="83.71" cy="131.25" r="1.53"/>
      <circle class="cls-2" cx="86" cy="122.1" r="1.53"/>
      <circle class="cls-2" cx="89.18" cy="113.22" r="1.53"/>
      <circle class="cls-2" cx="93.21" cy="104.69" r="1.53"/>
      <circle class="cls-2" cx="98.06" cy="96.61" r="1.53"/>
      <circle class="cls-2" cx="103.68" cy="89.03" r="1.53"/>
      <circle class="cls-2" cx="110.01" cy="82.04" r="1.53"/>
      <circle class="cls-2" cx="117" cy="75.71" r="1.53"/>
      <circle class="cls-2" cx="124.57" cy="70.09" r="1.53"/>
      <circle class="cls-2" cx="132.66" cy="65.25" r="1.53"/>
      <circle class="cls-2" cx="141.18" cy="61.21" r="1.53"/>
      <circle class="cls-2" cx="150.06" cy="58.04" r="1.53"/>
      <circle class="cls-2" cx="159.21" cy="55.75" r="1.53"/>
      <circle class="cls-2" cx="168.54" cy="54.36" r="1.53"/>
      <circle class="cls-2" cx="162.19" cy="229.29" r="3.05"/>
      <circle class="cls-2" cx="147.02" cy="224.69" r="3.05"/>
      <circle class="cls-2" cx="133.04" cy="217.23" r="3.05"/>
      <circle class="cls-2" cx="120.78" cy="207.18" r="3.05"/>
      <circle class="cls-2" cx="110.72" cy="194.94" r="3.05"/>
      <circle class="cls-2" cx="103.25" cy="180.97" r="3.05"/>
      <circle class="cls-2" cx="98.64" cy="165.8" r="3.05"/>
      <circle class="cls-2" cx="97.08" cy="150.03" r="3.05"/>
      <circle class="cls-2" cx="98.62" cy="134.26" r="3.05"/>
      <circle class="cls-2" cx="103.22" cy="119.1" r="3.05"/>
      <circle class="cls-2" cx="110.68" cy="105.12" r="3.05"/>
      <circle class="cls-2" cx="153.44" cy="209.19" r="4.58"/>
      <circle class="cls-2" cx="132.65" cy="195.32" r="4.58"/>
      <circle class="cls-2" cx="118.75" cy="174.55" r="4.58"/>
      <circle class="cls-1" cx="113.9" cy="149.98" r="4.58"/>
      <circle class="cls-1" cx="209.23" cy="181.28" r="7.63"/>
      <circle class="cls-1" cx="120.8" cy="92.84" r="3.05"/>
    </g>
    <g>
      <g>
        <path class="cls-2" d="M470.69,157.45h21.7c4.02-.2,7.21-3.53,7.21-7.6s-3.4-7.61-7.61-7.61h-21.3v-28.92h36.52c4.2,0,7.61-3.4,7.61-7.61s-3.19-7.39-7.21-7.6h-44.91c-4.02.2-7.21,3.53-7.21,7.6v95.86h59.34v-15.21h-44.12v-28.92Z"/>
        <circle class="cls-1" cx="507.21" cy="105.7" r="7.61"/>
      </g>
      <g>
        <path class="cls-2" d="M593.95,126.87v1.84c-.15,4.91-1.49,9.51-3.74,13.54-4.96,8.87-14.33,14.93-25.15,15.21h-15.23v44.13h-15.21v-51.99c0-4.06,3.29-7.35,7.35-7.35h21.82c7.7,0,14.43-5.81,14.92-13.5.55-8.42-6.12-15.42-14.43-15.42h-22.06c-1.22,0-2.37-.29-3.39-.8-2.5-1.24-4.22-3.82-4.22-6.81,0-4.07,3.2-7.39,7.21-7.6h23.23c10.81.27,20.19,6.34,25.15,15.21,2.25,4.03,3.59,8.64,3.74,13.54Z"/>
        <circle class="cls-1" cx="542.23" cy="105.7" r="7.61"/>
      </g>
      <g>
        <path class="cls-2" d="M628.66,98.12h-.79c-4.02.2-7.21,3.53-7.21,7.6v95.86h15.21v-95.86c0-4.07-3.19-7.39-7.21-7.6Z"/>
        <circle class="cls-1" cx="628.27" cy="105.7" r="7.61"/>
      </g>
      <g>
        <path class="cls-2" d="M345.29,105.58v95.98s15.21,0,15.21,0v-77.47s27.26,27.26,27.26,27.26l27.27-27.27v69.88c0,4.2,3.4,7.61,7.61,7.61,4.16,0,7.54-3.34,7.6-7.48v-88.5c-.07-4.14-3.44-7.48-7.6-7.48-2.1,0-4,.85-5.38,2.23l-29.5,29.5-16.52-16.52-13.23-13.23c-1.35-1.23-3.14-1.97-5.12-1.97-4.16,0-7.54,3.33-7.6,7.48Z"/>
        <circle class="cls-1" cx="422.64" cy="193.96" r="7.61"/>
      </g>
      <g>
        <path class="cls-2" d="M315.06,149.83h0c0,2.53-2.04,4.57-4.56,4.57h-45.65c-2.52,0-4.56-2.04-4.56-4.56s1.92-4.44,4.33-4.56h40.93c-.17-1.04-.4-2.05-.69-3.05-3.3-11.43-13.83-19.78-26.31-19.78s-23.02,8.35-26.31,19.78c-.29,1-.52,2.01-.69,3.05-.25,1.48-.38,3-.38,4.56s.13,3.08.38,4.56c.17,1.03.4,2.04.68,3.03,3.29,11.43,13.83,19.79,26.32,19.79,2.52,0,4.56,2.04,4.56,4.56s-2.04,4.56-4.56,4.56h-.23c-17.46-.11-32.01-12.47-35.49-28.92-.21-1-.38-2.01-.51-3.03-.19-1.49-.28-3.02-.28-4.56s.09-3.06.28-4.56c.13-1.03.3-2.05.51-3.05,3.5-16.52,18.16-28.91,35.72-28.91s32.22,12.39,35.72,28.91c.22,1,.39,2.02.51,3.05.19,1.49.28,3.01.28,4.55Z"/>
        <circle class="cls-1" cx="264.85" cy="149.84" r="4.56"/>
      </g>
    </g>
  </g>
  <g>
    <path class="cls-2" d="M687.42,125.8c2.19,0,4.27.9,5.6,2.36l-1.47,1.44c-.9-.98-2.49-1.73-4.13-1.73-3.13,0-5.56,2.49-5.56,5.8s2.49,5.8,5.75,5.8c2.06,0,3.54-1.14,4.4-2.17l1.55,1.4c-1.31,1.68-3.59,2.84-5.95,2.84-4.57,0-7.94-3.35-7.94-7.88s3.33-7.87,7.74-7.87Z"/>
    <path class="cls-2" d="M704.95,132.04v2.08h-5.03v5.14h6.78v2.08h-8.97v-15.31h8.75v2.08h-6.56v3.94h5.03Z"/>
    <path class="cls-2" d="M713.49,130.09v11.24h-2.19v-15.31h1.53l9.19,11.24v-11.24h2.19v15.31h-1.53l-9.19-11.24Z"/>
    <path class="cls-2" d="M728.27,126.02h10.5v2.08h-4.16v13.23h-2.19v-13.23h-4.16v-2.08Z"/>
    <path class="cls-2" d="M745.01,134.12v7.22h-2.19v-15.31h5.36c1.4,0,2.27.33,2.97.9.92.74,1.51,1.88,1.51,3.15s-.59,2.41-1.51,3.15c-.48.39-1.03.68-1.79.81l5.49,7.31h-2.65l-5.45-7.22h-1.75ZM748.07,132.04c.98,0,1.49-.22,1.84-.57.35-.35.57-.85.57-1.4s-.22-1.05-.57-1.4c-.35-.35-.85-.57-1.84-.57h-3.06v3.94h3.06Z"/>
    <path class="cls-2" d="M764.49,125.8c4.33,0,7.65,3.41,7.65,7.87s-3.33,7.88-7.65,7.88-7.66-3.41-7.66-7.88,3.33-7.87,7.66-7.87ZM764.49,139.48c3.13,0,5.47-2.47,5.47-5.8s-2.34-5.8-5.47-5.8-5.47,2.49-5.47,5.8,2.34,5.8,5.47,5.8Z"/>
    <path class="cls-2" d="M792.5,138.05h-1.53l-4.48-7.02v10.3h-2.19v-15.31h1.53l5.91,9.34,5.91-9.34h1.53v15.31h-2.19v-10.3l-4.48,7.02Z"/>
    <path class="cls-2" d="M806.25,139.54c-.98-1.07-1.6-2.49-1.6-4.55v-8.97h2.19v9.08c0,1.44.35,2.34.96,3.02.76.85,1.9,1.36,3.19,1.36s2.43-.5,3.19-1.36c.61-.68.96-1.57.96-3.02v-9.08h2.19v8.97c0,2.06-.61,3.48-1.6,4.55-1.16,1.25-2.86,2.01-4.75,2.01s-3.59-.77-4.75-2.01Z"/>
    <path class="cls-2" d="M825.01,139.26h6.78v2.08h-8.97v-15.31h2.19v13.23Z"/>
    <path class="cls-2" d="M833,126.02h10.5v2.08h-4.16v13.23h-2.19v-13.23h-4.16v-2.08Z"/>
    <path class="cls-2" d="M847.56,126.02h2.19v15.31h-2.19v-15.31Z"/>
    <path class="cls-2" d="M855.44,141.33v-15.31h4.59c2.43,0,4,.52,5.25,1.44,1.88,1.4,3.06,3.67,3.06,6.21s-1.16,4.81-3.04,6.21c-1.25.92-2.84,1.44-5.27,1.44h-4.59ZM864.3,129.39c-.96-.83-2.23-1.29-4.37-1.29h-2.3v11.16h2.3c2.14,0,3.41-.46,4.37-1.29,1.16-1.03,1.86-2.58,1.86-4.29s-.7-3.26-1.86-4.29Z"/>
    <path class="cls-2" d="M872.84,126.02h2.19v15.31h-2.19v-15.31Z"/>
    <path class="cls-2" d="M880.92,137.51c.9,1.09,2.16,1.97,3.74,1.97,1.42,0,2.67-.92,2.67-2.3,0-2.34-3.24-2.6-5.27-3.94-1.09-.72-1.95-1.77-1.95-3.37,0-2.23,1.97-4.07,4.64-4.07,1.95,0,3.31.85,4.11,1.53l-1.29,1.6c-.83-.7-1.77-1.05-2.73-1.05-1.27,0-2.54.72-2.54,2.06,0,1.95,3.26,2.36,5.23,3.67,1.03.68,1.99,1.75,1.99,3.5,0,2.69-2.08,4.44-4.75,4.44-2.1,0-4-.92-5.36-2.56l1.51-1.49Z"/>
    <path class="cls-2" d="M900.66,125.8c2.19,0,4.27.9,5.6,2.36l-1.47,1.44c-.9-.98-2.49-1.73-4.13-1.73-3.13,0-5.56,2.49-5.56,5.8s2.49,5.8,5.75,5.8c2.06,0,3.54-1.14,4.4-2.17l1.55,1.4c-1.31,1.68-3.59,2.84-5.95,2.84-4.57,0-7.94-3.35-7.94-7.88s3.33-7.87,7.74-7.87Z"/>
    <path class="cls-2" d="M910.97,126.02h2.19v15.31h-2.19v-15.31Z"/>
    <path class="cls-2" d="M921.04,134.55v6.78h-2.19v-15.31h5.8c1.49,0,2.45.37,3.2,1.01.92.79,1.51,1.95,1.51,3.26s-.59,2.47-1.51,3.26c-.74.64-1.71,1.01-3.2,1.01h-3.61ZM924.54,132.48c1.05,0,1.62-.26,2.01-.68.37-.39.61-.92.61-1.51s-.24-1.12-.61-1.51c-.4-.42-.96-.68-2.01-.68h-3.5v4.38h3.5Z"/>
    <path class="cls-2" d="M935.92,139.26h6.78v2.08h-8.97v-15.31h2.19v13.23Z"/>
    <path class="cls-2" d="M946.87,126.02h2.19v15.31h-2.19v-15.31Z"/>
    <path class="cls-2" d="M956.94,130.09v11.24h-2.19v-15.31h1.53l9.19,11.24v-11.24h2.19v15.31h-1.53l-9.19-11.24Z"/>
    <path class="cls-2" d="M981.82,137.4h-6.45l-1.6,3.94h-2.27l6.34-15.31h1.53l6.34,15.31h-2.27l-1.62-3.94ZM976.24,135.32h4.73l-2.36-5.69-2.36,5.69Z"/>
    <path class="cls-2" d="M991.74,134.12v7.22h-2.19v-15.31h5.36c1.4,0,2.27.33,2.97.9.92.74,1.51,1.88,1.51,3.15s-.59,2.41-1.51,3.15c-.48.39-1.03.68-1.79.81l5.49,7.31h-2.65l-5.45-7.22h-1.75ZM994.8,132.04c.98,0,1.49-.22,1.84-.57.35-.35.57-.85.57-1.4s-.22-1.05-.57-1.4c-.35-.35-.85-.57-1.84-.57h-3.06v3.94h3.06Z"/>
    <path class="cls-2" d="M680.88,174.17v-15.31h4.59c2.43,0,4,.52,5.25,1.44,1.88,1.4,3.06,3.67,3.06,6.21s-1.16,4.81-3.04,6.21c-1.25.92-2.84,1.44-5.27,1.44h-4.59ZM689.74,162.23c-.96-.83-2.23-1.29-4.37-1.29h-2.3v11.16h2.3c2.14,0,3.41-.46,4.37-1.29,1.16-1.03,1.86-2.58,1.86-4.29s-.7-3.26-1.86-4.29Z"/>
    <path class="cls-2" d="M705.5,164.87v2.08h-5.03v5.14h6.78v2.08h-8.97v-15.31h8.75v2.08h-6.56v3.94h5.03Z"/>
    <path class="cls-2" d="M726.73,164.87v2.08h-5.03v5.14h6.78v2.08h-8.97v-15.31h8.75v2.08h-6.56v3.94h5.03Z"/>
    <path class="cls-2" d="M733.28,170.34c.9,1.09,2.16,1.97,3.74,1.97,1.42,0,2.67-.92,2.67-2.3,0-2.34-3.24-2.6-5.27-3.94-1.09-.72-1.95-1.77-1.95-3.37,0-2.23,1.97-4.07,4.64-4.07,1.95,0,3.31.85,4.11,1.53l-1.29,1.6c-.83-.7-1.77-1.05-2.73-1.05-1.27,0-2.54.72-2.54,2.06,0,1.95,3.26,2.36,5.23,3.67,1.03.68,1.99,1.75,1.99,3.5,0,2.69-2.08,4.44-4.75,4.44-2.1,0-4-.92-5.36-2.56l1.51-1.49Z"/>
    <path class="cls-2" d="M744.4,158.86h10.5v2.08h-4.16v13.23h-2.19v-13.23h-4.16v-2.08Z"/>
    <path class="cls-2" d="M761.14,166.95v7.22h-2.19v-15.31h5.36c1.4,0,2.27.33,2.97.9.92.74,1.51,1.88,1.51,3.15s-.59,2.41-1.51,3.15c-.48.39-1.03.68-1.79.81l5.49,7.31h-2.65l-5.45-7.22h-1.75ZM764.2,164.87c.98,0,1.49-.22,1.84-.57.35-.35.57-.85.57-1.4s-.22-1.05-.57-1.4c-.35-.35-.85-.57-1.84-.57h-3.06v3.94h3.06Z"/>
    <path class="cls-2" d="M783.51,170.23h-6.45l-1.6,3.94h-2.27l6.34-15.31h1.53l6.34,15.31h-2.27l-1.62-3.94ZM777.93,168.15h4.73l-2.36-5.69-2.36,5.69Z"/>
    <path class="cls-2" d="M788.29,158.86h10.5v2.08h-4.16v13.23h-2.19v-13.23h-4.16v-2.08Z"/>
    <path class="cls-2" d="M810.06,164.87v2.08h-5.03v5.14h6.78v2.08h-8.97v-15.31h8.75v2.08h-6.56v3.94h5.03ZM806.45,157.76l1.42-3.28h2.3l-2.3,3.28h-1.42Z"/>
    <path class="cls-2" d="M828.66,171.54c-1.31,1.66-3.59,2.84-5.95,2.84-4.57,0-7.94-3.35-7.94-7.88s3.33-7.87,7.74-7.87c2.19,0,4.27.9,5.6,2.36l-1.47,1.44c-.9-.98-2.49-1.73-4.13-1.73-3.13,0-5.56,2.49-5.56,5.8s2.49,5.8,5.75,5.8c1.62,0,2.95-.61,3.76-1.42v-3.94h-4.38v-2.08h6.56v6.67Z"/>
    <path class="cls-2" d="M833.81,158.86h2.19v15.31h-2.19v-15.31Z"/>
    <path class="cls-2" d="M850.16,170.23h-6.45l-1.6,3.94h-2.27l6.34-15.31h1.53l6.34,15.31h-2.27l-1.62-3.94ZM844.58,168.15h4.73l-2.36-5.69-2.36,5.69Z"/>
    <path class="cls-2" d="M860.95,171.54l-2.62,5.69h-1.42l1.64-5.69h2.41Z"/>
    <path class="cls-2" d="M875.84,167.39v6.78h-2.19v-15.31h5.8c1.49,0,2.45.37,3.2,1.01.92.79,1.51,1.95,1.51,3.26s-.59,2.47-1.51,3.26c-.74.64-1.71,1.01-3.2,1.01h-3.61ZM879.34,165.31c1.05,0,1.62-.26,2.01-.68.37-.39.61-.92.61-1.51s-.24-1.12-.61-1.51c-.4-.42-.96-.68-2.01-.68h-3.5v4.38h3.5Z"/>
    <path class="cls-2" d="M895.75,164.87v2.08h-5.03v5.14h6.78v2.08h-8.97v-15.31h8.75v2.08h-6.56v3.94h5.03Z"/>
    <path class="cls-2" d="M902.3,170.34c.9,1.09,2.16,1.97,3.74,1.97,1.42,0,2.67-.92,2.67-2.3,0-2.34-3.24-2.6-5.27-3.94-1.09-.72-1.95-1.77-1.95-3.37,0-2.23,1.97-4.07,4.64-4.07,1.95,0,3.31.85,4.11,1.53l-1.29,1.6c-.83-.7-1.77-1.05-2.73-1.05-1.27,0-2.54.72-2.54,2.06,0,1.95,3.26,2.36,5.23,3.67,1.03.68,1.99,1.75,1.99,3.5,0,2.69-2.08,4.44-4.75,4.44-2.1,0-4-.92-5.36-2.56l1.51-1.49Z"/>
    <path class="cls-2" d="M921.96,158.64c4.33,0,7.65,3.41,7.65,7.87,0,2.01-.68,3.81-1.82,5.18l2.25,2.47h-2.71l-1.03-1.12c-1.23.85-2.71,1.34-4.35,1.34-4.33,0-7.66-3.41-7.66-7.88s3.33-7.87,7.66-7.87ZM921.96,172.31c1.09,0,2.1-.31,2.93-.83l-3.67-4.09,1.53-1.31,3.59,4c.68-.96,1.09-2.19,1.09-3.57,0-3.3-2.34-5.8-5.47-5.8s-5.47,2.49-5.47,5.8,2.34,5.8,5.47,5.8Z"/>
    <path class="cls-2" d="M935.7,172.37c-.98-1.07-1.6-2.49-1.6-4.55v-8.97h2.19v9.08c0,1.44.35,2.34.96,3.02.77.85,1.91,1.36,3.2,1.36s2.43-.5,3.19-1.36c.61-.68.96-1.57.96-3.02v-9.08h2.19v8.97c0,2.06-.61,3.48-1.6,4.55-1.16,1.25-2.86,2.01-4.75,2.01s-3.59-.77-4.75-2.01Z"/>
    <path class="cls-2" d="M952.27,158.86h2.19v15.31h-2.19v-15.31Z"/>
    <path class="cls-2" d="M960.35,170.34c.9,1.09,2.16,1.97,3.74,1.97,1.42,0,2.67-.92,2.67-2.3,0-2.34-3.24-2.6-5.27-3.94-1.09-.72-1.95-1.77-1.95-3.37,0-2.23,1.97-4.07,4.64-4.07,1.95,0,3.31.85,4.11,1.53l-1.29,1.6c-.83-.7-1.77-1.05-2.73-1.05-1.27,0-2.54.72-2.54,2.06,0,1.95,3.26,2.36,5.23,3.67,1.03.68,1.99,1.75,1.99,3.5,0,2.69-2.08,4.44-4.75,4.44-2.1,0-4-.92-5.36-2.56l1.51-1.49Z"/>
    <path class="cls-2" d="M981.91,170.23h-6.45l-1.6,3.94h-2.27l6.34-15.31h1.53l6.34,15.31h-2.27l-1.62-3.94ZM976.33,168.15h4.73l-2.36-5.69-2.36,5.69Z"/>
    <path class="cls-2" d="M1004.08,164.87v2.08h-5.03v5.14h6.78v2.08h-8.97v-15.31h8.75v2.08h-6.56v3.94h5.03Z"/>
    <path class="cls-2" d="M1018.09,158.86h2.19v15.31h-2.19v-15.31Z"/>
    <path class="cls-2" d="M1028.16,162.93v11.24h-2.19v-15.31h1.53l9.19,11.24v-11.24h2.19v15.31h-1.53l-9.19-11.24Z"/>
    <path class="cls-2" d="M1051.03,158.64c4.33,0,7.65,3.41,7.65,7.87s-3.33,7.88-7.65,7.88-7.66-3.41-7.66-7.88,3.33-7.87,7.66-7.87ZM1051.03,172.31c3.13,0,5.47-2.47,5.47-5.8s-2.34-5.8-5.47-5.8-5.47,2.49-5.47,5.8,2.34,5.8,5.47,5.8Z"/>
    <path class="cls-2" d="M1068.65,174.17h-1.53l-6.02-15.31h2.27l4.51,11.55,4.51-11.55h2.27l-6.02,15.31Z"/>
    <path class="cls-2" d="M1085.77,170.23h-6.45l-1.6,3.94h-2.27l6.34-15.31h1.53l6.34,15.31h-2.27l-1.62-3.94ZM1080.19,168.15h4.73l-2.36-5.69-2.36,5.69Z"/>
    <path class="cls-2" d="M1099.71,158.64c2.19,0,4.27.9,5.6,2.36l-1.47,1.44c-.9-.98-2.49-1.73-4.13-1.73-3.13,0-5.56,2.49-5.56,5.8s2.49,5.8,5.75,5.8c2.06,0,3.54-1.14,4.4-2.17l1.55,1.4c-1.22,1.57-3.28,2.67-5.45,2.82l-.57,2.87h-2.29l1.36-2.91c-4.05-.44-6.94-3.61-6.94-7.81,0-4.42,3.33-7.87,7.74-7.87Z"/>
    <path class="cls-2" d="M1118.82,170.23h-6.45l-1.6,3.94h-2.27l6.34-15.31h1.53l6.34,15.31h-2.27l-1.62-3.94ZM1111.88,157.08c.05-1.29.9-2.38,2.21-2.38,1.11,0,2.1.98,2.98.98.5,0,.72-.35.83-.98l1.42.46c-.04,1.29-.9,2.38-2.21,2.38-1.12,0-2.1-.98-2.98-.98-.5,0-.72.35-.83.98l-1.42-.46ZM1113.24,168.15h4.73l-2.36-5.69-2.36,5.69Z"/>
    <path class="cls-2" d="M1132.68,158.64c4.33,0,7.65,3.41,7.65,7.87s-3.33,7.88-7.65,7.88-7.66-3.41-7.66-7.88,3.33-7.87,7.66-7.87ZM1132.68,172.31c3.13,0,5.47-2.47,5.47-5.8s-2.34-5.8-5.47-5.8-5.47,2.49-5.47,5.8,2.34,5.8,5.47,5.8Z"/>
  </g>
</svg>